<svg width="56" height="56" viewBox="0 0 56 56" fill="none" xmlns="http://www.w3.org/2000/svg">
<path d="M42.154 40.7441L29.4135 28L42.1541 15.2557C42.3007 15.1091 42.3831 14.9102 42.3831 14.7028C42.3831 14.4954 42.3007 14.2965 42.1541 14.1498C39.4156 11.4105 35.9265 9.54507 32.128 8.78931C28.3296 8.03356 24.3924 8.42144 20.8143 9.90393C17.2363 11.3864 14.178 13.8969 12.0264 17.118C9.87469 20.339 8.72622 24.1259 8.72617 27.9999C8.72613 31.8739 9.87454 35.6609 12.0262 38.882C14.1778 42.1031 17.2361 44.6136 20.8142 46.0961C24.3922 47.5786 28.3295 47.9665 32.1279 47.2107C35.9264 46.4549 39.4155 44.5894 42.154 41.85C42.3007 41.7034 42.383 41.5045 42.383 41.2971C42.383 41.0897 42.3007 40.8907 42.154 40.7441ZM33.8291 34.6287L32.518 34.6288C32.3107 34.6288 32.1118 34.7113 31.9652 34.858C31.8186 35.0047 31.7362 35.2036 31.7363 35.4111C31.7363 35.6185 31.8187 35.8174 31.9654 35.9641C32.112 36.1107 32.3109 36.1931 32.5183 36.193L34.4594 36.193C34.5802 36.193 34.6993 36.165 34.8074 36.111C34.9155 36.0571 35.0096 35.9788 35.0823 35.8823L38.0209 38.8217C37.7833 38.91 37.5196 38.9838 37.2484 39.0596C36.7831 39.1733 36.3305 39.3339 35.8975 39.5389C35.455 39.0341 34.8699 38.6756 34.2193 38.5106C33.5688 38.3456 32.8835 38.3819 32.2541 38.6148C31.6246 38.8477 31.0806 39.2661 30.694 39.8149C30.3074 40.3636 30.0963 41.0167 30.0887 41.688C30.0102 41.6913 29.9315 41.6966 29.8523 41.7055C29.2552 41.7724 28.7071 42.0042 28.1774 42.2281L28.0063 42.3002C27.5192 42.5041 27.0495 42.6834 26.6582 42.6394C26.2304 42.5915 25.7656 42.2574 25.2733 41.9039C24.8053 41.5675 24.3214 41.2196 23.7516 41.0206C23.1933 40.8255 22.606 40.7979 22.0376 40.7706C21.4254 40.7415 20.8474 40.7137 20.4704 40.4768C20.1176 40.2541 19.8473 39.7575 19.561 39.2312C19.2821 38.7182 18.9937 38.1879 18.5579 37.752C18.1222 37.3161 17.592 37.0276 17.0792 36.7487C16.5531 36.4624 16.0564 36.1919 15.8339 35.839C15.5967 35.4621 15.5695 34.8833 15.5401 34.2712C15.5132 33.7029 15.4853 33.1153 15.2904 32.5568C15.0914 31.9869 14.7437 31.5028 14.4073 31.0347C14.0535 30.5425 13.7196 30.0775 13.6718 29.6492C13.6281 29.2582 13.8073 28.7885 14.0111 28.3013L14.0838 28.1289C14.3077 27.599 14.5393 27.0512 14.606 26.4542C14.6724 25.861 14.5681 25.2781 14.4673 24.7145C14.3599 24.1139 14.2584 23.5467 14.403 23.1324C14.5431 22.7308 14.9708 22.3535 15.4234 21.9541C15.8572 21.5713 16.3057 21.1756 16.6295 20.6613C16.9419 20.1651 17.099 19.6014 17.2511 19.0564C17.4166 18.4633 17.5729 17.903 17.8934 17.5824C18.214 17.2617 18.7741 17.1055 19.3671 16.9399C19.9119 16.7878 20.4754 16.6306 20.9715 16.3181C21.4857 15.9942 21.8816 15.5459 22.264 15.1118C22.6633 14.6588 23.0405 14.2312 23.442 14.091C23.8565 13.9462 24.4236 14.0478 25.0242 14.1553C25.5872 14.2557 26.1701 14.3603 26.7632 14.294C27.3604 14.2271 27.9084 13.9953 28.4382 13.7714L28.6092 13.6993C29.0964 13.4954 29.5663 13.3157 29.9573 13.3601C30.3851 13.408 30.8499 13.7421 31.3422 14.0956C31.8102 14.432 32.2941 14.7799 32.8639 14.9789C33.4222 15.174 34.0095 15.2016 34.5779 15.2289C34.8848 15.2374 35.1909 15.2629 35.495 15.3052C34.7382 16.6417 34.7705 18.3324 35.6019 19.5978L27.755 27.447C27.6084 27.5936 27.526 27.7925 27.526 28C27.526 28.2074 27.6084 28.4063 27.755 28.5529L33.8291 34.6287ZM34.351 40.8879C33.9517 41.3407 33.5745 41.7684 33.1729 41.9087C32.7743 42.0479 32.2346 41.9593 31.6597 41.8567C31.6316 41.4956 31.7162 41.1347 31.902 40.8238C32.0877 40.5129 32.3654 40.2674 32.6967 40.1212C33.028 39.9749 33.3965 39.9352 33.7513 40.0075C34.1061 40.0798 34.4297 40.2606 34.6774 40.5248C34.5664 40.6447 34.4583 40.7667 34.3512 40.8881L34.351 40.8879ZM36.7452 18.4542C36.5849 18.1081 36.5033 17.7308 36.5061 17.3494C36.5089 16.968 36.5961 16.5919 36.7616 16.2483C36.8602 16.4123 36.9561 16.5884 37.0541 16.7688C37.212 17.0593 37.3741 17.3548 37.5631 17.6361L36.7452 18.4542ZM28.3078 46.0229C25.3779 46.0229 22.4921 45.3081 19.9007 43.9406C17.3092 42.573 15.0903 40.5939 13.4362 38.1749C11.7821 35.7558 10.7427 32.9698 10.4081 30.0582C10.0735 27.1465 10.4538 24.1972 11.516 21.4659C12.5783 18.7345 14.2904 16.3034 16.5041 14.3834C18.7177 12.4633 21.3661 11.1122 24.2196 10.4472C27.0731 9.78216 30.0457 9.82324 32.8798 10.5669C35.7139 11.3105 38.3239 12.7343 40.4837 14.7147L38.6967 16.5022C38.6066 16.3495 38.5183 16.1872 38.4279 16.0211C38.0757 15.3733 37.6763 14.6394 36.978 14.1992C36.2532 13.7428 35.4024 13.7024 34.6519 13.6668C34.1743 13.6441 33.7232 13.6225 33.379 13.5023C33.0229 13.378 32.6496 13.1097 32.2545 12.8256C31.6504 12.3912 30.9656 11.899 30.1314 11.8055C29.3685 11.7198 28.6628 11.9816 28.0061 12.2566L27.8296 12.3308C27.3827 12.5198 26.9605 12.6982 26.5891 12.7399C26.222 12.7809 25.7739 12.7009 25.2996 12.6158C24.563 12.484 23.7285 12.3349 22.9266 12.6146C22.1387 12.8897 21.5823 13.5207 21.0912 14.0772C20.7674 14.4445 20.4619 14.7909 20.1382 14.9947C19.8352 15.1855 19.4037 15.306 18.9467 15.4335C18.221 15.6361 17.3984 15.8657 16.7877 16.4766C16.1769 17.0875 15.9474 17.9103 15.7449 18.6362C15.6174 19.0933 15.497 19.525 15.3059 19.8284C15.1021 20.1522 14.7555 20.458 14.3886 20.7816C13.8322 21.2727 13.2013 21.8292 12.9264 22.6174C12.6467 23.4191 12.796 24.2539 12.9278 24.9905C13.0127 25.4651 13.0928 25.9133 13.0517 26.2808C13.0101 26.652 12.8319 27.0739 12.6432 27.5205L12.5683 27.6984C12.2934 28.3556 12.0322 29.0612 12.1176 29.8239C12.211 30.6585 12.7032 31.3434 13.1374 31.9478C13.4213 32.3431 13.6895 32.7165 13.8139 33.0727C13.934 33.4168 13.9554 33.8681 13.9783 34.346C14.0139 35.0969 14.0543 35.9479 14.5106 36.6729C14.9507 37.372 15.6846 37.771 16.3321 38.1233C16.7663 38.3595 17.1764 38.5826 17.4522 38.8586C17.7281 39.1345 17.9511 39.5447 18.1874 39.9791C18.451 40.4639 18.7409 40.9969 19.1627 41.4189C19.3061 41.5636 19.4654 41.6918 19.6374 41.8011C20.3622 42.2575 21.2129 42.2979 21.9635 42.3335C22.4411 42.3562 22.8922 42.3778 23.2364 42.498C23.5925 42.6223 23.9658 42.8907 24.3608 43.1747C24.965 43.6091 25.6497 44.1013 26.4839 44.1948C27.2468 44.2805 27.9526 44.0187 28.6093 43.7438L28.7858 43.6695C29.2326 43.4806 29.6548 43.3021 30.0263 43.2604C30.3935 43.2193 30.8415 43.2995 31.316 43.3844C32.0525 43.5163 32.887 43.6655 33.6888 43.3857C34.4767 43.1105 35.0331 42.4795 35.5241 41.9231C35.848 41.5559 36.1534 41.2094 36.4772 41.0056C36.7801 40.8148 37.2117 40.6943 37.669 40.5664C38.1661 40.4277 38.7085 40.2762 39.1971 39.9983L40.4837 41.2852C37.1674 44.3435 32.8184 46.0357 28.3078 46.0229V46.0229Z" fill="#F44A25"/>
<path d="M27.015 18.5282C26.5766 18.0897 26.0181 17.7911 25.4101 17.6701C24.8021 17.5492 24.1719 17.6113 23.5992 17.8486C23.0264 18.0859 22.5369 18.4877 22.1925 19.0033C21.8481 19.5189 21.6643 20.125 21.6643 20.7451C21.6643 21.3652 21.8481 21.9714 22.1925 22.487C22.5369 23.0026 23.0264 23.4044 23.5992 23.6417C24.1719 23.879 24.8021 23.9411 25.4101 23.8201C26.0181 23.6992 26.5766 23.4006 27.015 22.9621C27.6019 22.3737 27.9316 21.5764 27.9316 20.7451C27.9316 19.9139 27.6019 19.1166 27.015 18.5282V18.5282ZM23.688 21.8561C23.4683 21.6364 23.3187 21.3564 23.2581 21.0517C23.1975 20.7469 23.2286 20.431 23.3475 20.1439C23.4664 19.8568 23.6677 19.6114 23.926 19.4387C24.1843 19.2661 24.488 19.174 24.7986 19.174C25.1093 19.174 25.413 19.2661 25.6713 19.4387C25.9296 19.6114 26.1309 19.8568 26.2498 20.1439C26.3687 20.431 26.3998 20.7469 26.3392 21.0517C26.2786 21.3564 26.129 21.6364 25.9093 21.8561C25.6145 22.1504 25.2151 22.3156 24.7986 22.3156C24.3822 22.3156 23.9828 22.1504 23.688 21.8561V21.8561Z" fill="#F44A25"/>
<path d="M20.7352 28.5304C20.4245 28.2195 20.0286 28.0079 19.5976 27.9221C19.1666 27.8364 18.7199 27.8803 18.3139 28.0485C17.9079 28.2167 17.5609 28.5016 17.3167 28.867C17.0725 29.2325 16.9422 29.6622 16.9422 30.1017C16.9421 30.5413 17.0724 30.971 17.3165 31.3365C17.5606 31.702 17.9076 31.9869 18.3135 32.1551C18.7195 32.3234 19.1662 32.3675 19.5972 32.2818C20.0282 32.1961 20.4242 31.9845 20.7349 31.6737C21.1511 31.2566 21.3848 30.6914 21.3849 30.1021C21.3849 29.5128 21.1513 28.9475 20.7352 28.5304ZM18.6044 30.6617C18.4938 30.551 18.4184 30.41 18.3879 30.2564C18.3574 30.1029 18.373 29.9438 18.4329 29.7991C18.4928 29.6545 18.5942 29.5309 18.7244 29.4439C18.8545 29.357 19.0075 29.3106 19.164 29.3106C19.3205 29.3106 19.4735 29.357 19.6036 29.444C19.7337 29.531 19.8351 29.6546 19.895 29.7992C19.9549 29.9439 19.9705 30.103 19.94 30.2565C19.9094 30.4101 19.834 30.5511 19.7234 30.6618C19.5748 30.8099 19.3737 30.893 19.1639 30.8929C18.9542 30.8929 18.7529 30.8099 18.6044 30.6617Z" fill="#F44A25"/>
<path d="M25.6763 39.443C25.9559 39.7226 26.312 39.9131 26.6998 39.9902C27.0875 40.0674 27.4894 40.0278 27.8547 39.8764C28.2199 39.7251 28.5321 39.4688 28.7517 39.14C28.9714 38.8112 29.0886 38.4247 29.0886 38.0292C29.0886 37.6338 28.9714 37.2472 28.7517 36.9184C28.5321 36.5896 28.2199 36.3333 27.8547 36.182C27.4894 36.0307 27.0875 35.9911 26.6998 36.0682C26.312 36.1454 25.9559 36.3358 25.6763 36.6154C25.302 36.9907 25.0918 37.4991 25.0918 38.0292C25.0918 38.5593 25.302 39.0677 25.6763 39.443V39.443ZM27.5932 37.5256C27.6927 37.6252 27.7605 37.7521 27.788 37.8902C27.8154 38.0283 27.8013 38.1715 27.7475 38.3016C27.6936 38.4317 27.6023 38.5429 27.4853 38.6211C27.3682 38.6994 27.2306 38.7411 27.0898 38.7411C26.949 38.7411 26.8114 38.6993 26.6943 38.6211C26.5773 38.5428 26.486 38.4316 26.4322 38.3015C26.3783 38.1714 26.3642 38.0282 26.3917 37.8901C26.4192 37.752 26.487 37.6251 26.5866 37.5256C26.7202 37.3923 26.9012 37.3175 27.0898 37.3176C27.2785 37.3176 27.4594 37.3925 27.593 37.5258L27.5932 37.5256Z" fill="#F44A25"/>
<path d="M24.8747 31.5961C24.8747 31.6989 24.8949 31.8006 24.9342 31.8955C24.9735 31.9905 25.0311 32.0767 25.1037 32.1494C25.1763 32.222 25.2625 32.2796 25.3574 32.319C25.4523 32.3583 25.554 32.3785 25.6567 32.3785C25.7594 32.3786 25.8611 32.3583 25.956 32.319C26.0509 32.2797 26.1371 32.2221 26.2098 32.1495C26.2824 32.0768 26.34 31.9906 26.3793 31.8957C26.4186 31.8008 26.4389 31.699 26.4389 31.5963L26.4389 29.6538C26.4389 29.4463 26.3565 29.2473 26.2098 29.1006C26.0631 28.9539 25.8642 28.8714 25.6568 28.8714C25.4493 28.8714 25.2504 28.9538 25.1037 29.1005C24.957 29.2473 24.8746 29.4463 24.8746 29.6538L24.8747 31.5961Z" fill="#F44A25"/>
<path d="M29.6875 18.9359C29.6875 19.1434 29.7699 19.3424 29.9166 19.4891C30.0632 19.6359 30.2622 19.7183 30.4696 19.7183C30.677 19.7183 30.876 19.6359 31.0227 19.4892C31.1694 19.3425 31.2518 19.1435 31.2518 18.936L31.2517 16.9936C31.2517 16.7861 31.1693 16.5871 31.0227 16.4404C30.876 16.2937 30.6771 16.2112 30.4697 16.2112C30.2622 16.2112 30.0633 16.2936 29.9166 16.4403C29.7699 16.587 29.6875 16.786 29.6875 16.9935L29.6875 18.9359Z" fill="#F44A25"/>
<path d="M18.8018 23.0717C18.8018 22.8642 18.7194 22.6652 18.5727 22.5184C18.4261 22.3717 18.2271 22.2893 18.0197 22.2893C17.8123 22.2893 17.6133 22.3717 17.4666 22.5184C17.3199 22.6651 17.2375 22.8641 17.2375 23.0716L17.2375 25.0139C17.2375 25.2214 17.3199 25.4204 17.4665 25.5671C17.6132 25.7139 17.8121 25.7963 18.0196 25.7963C18.227 25.7963 18.4259 25.7139 18.5726 25.5672C18.7193 25.4205 18.8017 25.2216 18.8017 25.0141L18.8018 23.0717Z" fill="#F44A25"/>
<path d="M22.2319 35.744C22.2319 35.6413 22.2117 35.5396 22.1724 35.4447C22.1331 35.3497 22.0755 35.2635 22.0028 35.1908C21.9302 35.1182 21.844 35.0606 21.7491 35.0212C21.6542 34.9819 21.5525 34.9617 21.4498 34.9617C21.3471 34.9616 21.2454 34.9819 21.1505 35.0212C21.0556 35.0605 20.9694 35.1181 20.8968 35.1907C20.8242 35.2634 20.7665 35.3496 20.7272 35.4445C20.6879 35.5394 20.6677 35.6412 20.6677 35.7439L20.6675 37.6862C20.6674 37.8937 20.7498 38.0927 20.8965 38.2394C21.0432 38.3861 21.2421 38.4686 21.4496 38.4686C21.657 38.4686 21.8559 38.3862 22.0026 38.2394C22.1493 38.0927 22.2317 37.8937 22.2317 37.6862L22.2319 35.744Z" fill="#F44A25"/>
</svg>
