<svg width="146" height="40" viewBox="0 0 146 40" fill="none" xmlns="http://www.w3.org/2000/svg">
<path d="M34.154 32.7441L21.4135 20L34.1541 7.25575C34.3007 7.10909 34.3831 6.91018 34.3831 6.70278C34.3831 6.49537 34.3007 6.29646 34.1541 6.1498C31.4156 3.41053 27.9265 1.54507 24.128 0.789313C20.3296 0.0335557 16.3924 0.421444 12.8143 1.90393C9.23626 3.38641 6.17803 5.89691 4.02636 9.11796C1.87469 12.339 0.726219 16.1259 0.726169 19.9999C0.726125 23.8739 1.87454 27.6609 4.02618 30.882C6.17783 34.1031 9.23607 36.6136 12.8142 38.0961C16.3922 39.5786 20.3295 39.9665 24.1279 39.2107C27.9264 38.4549 31.4155 36.5894 34.154 33.85C34.3007 33.7034 34.383 33.5045 34.383 33.2971C34.383 33.0897 34.3007 32.8907 34.154 32.7441ZM25.8291 26.6287L24.518 26.6288C24.3107 26.6288 24.1118 26.7113 23.9652 26.858C23.8186 27.0047 23.7362 27.2036 23.7363 27.4111C23.7363 27.6185 23.8187 27.8174 23.9654 27.9641C24.112 28.1107 24.3109 28.1931 24.5183 28.193L26.4594 28.193C26.5802 28.193 26.6993 28.165 26.8074 28.111C26.9155 28.0571 27.0096 27.9788 27.0823 27.8823L30.0209 30.8217C29.7833 30.91 29.5196 30.9838 29.2484 31.0596C28.7831 31.1733 28.3305 31.3339 27.8975 31.5389C27.455 31.0341 26.8699 30.6756 26.2193 30.5106C25.5688 30.3456 24.8835 30.3819 24.2541 30.6148C23.6246 30.8477 23.0806 31.2661 22.694 31.8149C22.3074 32.3636 22.0963 33.0167 22.0887 33.688C22.0102 33.6913 21.9315 33.6966 21.8523 33.7055C21.2552 33.7724 20.7071 34.0042 20.1774 34.2281L20.0063 34.3002C19.5192 34.5041 19.0495 34.6834 18.6582 34.6394C18.2304 34.5915 17.7656 34.2574 17.2733 33.9039C16.8053 33.5675 16.3214 33.2196 15.7516 33.0206C15.1933 32.8255 14.606 32.7979 14.0376 32.7706C13.4254 32.7415 12.8474 32.7137 12.4704 32.4768C12.1176 32.2541 11.8473 31.7575 11.561 31.2312C11.2821 30.7182 10.9937 30.1879 10.5579 29.752C10.1222 29.3161 9.59202 29.0276 9.07921 28.7487C8.55307 28.4624 8.05636 28.1919 7.83392 27.839C7.59669 27.4621 7.56953 26.8833 7.54009 26.2712C7.51321 25.7029 7.48529 25.1153 7.29035 24.5568C7.09141 23.9869 6.74369 23.5028 6.4073 23.0347C6.05349 22.5425 5.71959 22.0775 5.67177 21.6492C5.6281 21.2582 5.80735 20.7885 6.01113 20.3013L6.08383 20.1289C6.30772 19.599 6.53928 19.0512 6.60596 18.4542C6.67237 17.861 6.5681 17.2781 6.46728 16.7145C6.35989 16.1139 6.25845 15.5467 6.40301 15.1324C6.54315 14.7308 6.97076 14.3535 7.42338 13.9541C7.85721 13.5713 8.30575 13.1756 8.62949 12.6613C8.94191 12.1651 9.09905 11.6014 9.25114 11.0564C9.41664 10.4633 9.57288 9.90305 9.89345 9.58239C10.214 9.26174 10.7741 9.10545 11.3671 8.9399C11.9119 8.78777 12.4754 8.63058 12.9715 8.31808C13.4857 7.99425 13.8816 7.54592 14.264 7.11177C14.6633 6.65881 15.0405 6.23123 15.442 6.09098C15.8565 5.94624 16.4236 6.04778 17.0242 6.15526C17.5872 6.25569 18.1701 6.36034 18.7632 6.29399C19.3604 6.22708 19.9084 5.99531 20.4382 5.77136L20.6092 5.69933C21.0964 5.49535 21.5663 5.31571 21.9573 5.36008C22.3851 5.40798 22.8499 5.74212 23.3422 6.09561C23.8102 6.43202 24.2941 6.77991 24.8639 6.97892C25.4222 7.17398 26.0095 7.20163 26.5779 7.22886C26.8848 7.23741 27.1909 7.26291 27.495 7.30524C26.7382 8.64171 26.7705 10.3324 27.6019 11.5978L19.755 19.447C19.6084 19.5936 19.526 19.7925 19.526 20C19.526 20.2074 19.6084 20.4063 19.755 20.5529L25.8291 26.6287ZM26.351 32.8879C25.9517 33.3407 25.5745 33.7684 25.1729 33.9087C24.7743 34.0479 24.2346 33.9593 23.6597 33.8567C23.6316 33.4956 23.7162 33.1347 23.902 32.8238C24.0877 32.5129 24.3654 32.2674 24.6967 32.1212C25.028 31.9749 25.3965 31.9352 25.7513 32.0075C26.1061 32.0798 26.4297 32.2606 26.6774 32.5248C26.5664 32.6447 26.4583 32.7667 26.3512 32.8881L26.351 32.8879ZM28.7452 10.4542C28.5849 10.1081 28.5033 9.73084 28.5061 9.34942C28.5089 8.968 28.5961 8.59194 28.7616 8.24827C28.8602 8.4123 28.9561 8.58842 29.0541 8.76876C29.212 9.05928 29.3741 9.35477 29.5631 9.6361L28.7452 10.4542ZM20.3078 38.0229C17.3779 38.0229 14.4921 37.3081 11.9007 35.9406C9.30924 34.573 7.09031 32.5939 5.43619 30.1749C3.78207 27.7558 2.74268 24.9698 2.40809 22.0582C2.07349 19.1465 2.4538 16.1972 3.51605 13.4659C4.5783 10.7345 6.29043 8.3034 8.50407 6.38336C10.7177 4.46332 13.3661 3.11224 16.2196 2.4472C19.0731 1.78216 22.0457 1.82324 24.8798 2.56687C27.7139 3.31051 30.3239 4.73426 32.4837 6.71473L30.6967 8.50222C30.6066 8.34947 30.5183 8.18717 30.4279 8.02114C30.0757 7.37326 29.6763 6.63939 28.978 6.19922C28.2532 5.74281 27.4024 5.70238 26.6519 5.66678C26.1743 5.64411 25.7232 5.62254 25.379 5.50234C25.0229 5.37799 24.6496 5.10965 24.2545 4.82563C23.6504 4.3912 22.9656 3.89898 22.1314 3.80553C21.3685 3.71982 20.6628 3.98159 20.0061 4.25655L19.8296 4.33079C19.3827 4.51977 18.9605 4.69824 18.5891 4.73992C18.222 4.78091 17.7739 4.70087 17.2996 4.61585C16.563 4.48403 15.7285 4.33494 14.9266 4.6146C14.1387 4.88971 13.5823 5.52072 13.0912 6.07722C12.7674 6.44447 12.4619 6.79091 12.1382 6.99475C11.8352 7.18552 11.4037 7.306 10.9467 7.43353C10.221 7.63606 9.3984 7.86568 8.78767 8.47658C8.17694 9.08748 7.94738 9.9103 7.74491 10.6362C7.61742 11.0933 7.49697 11.525 7.3059 11.8284C7.10212 12.1522 6.7555 12.458 6.38857 12.7816C5.83215 13.2727 5.20132 13.8292 4.92643 14.6174C4.6467 15.4191 4.79603 16.2539 4.92781 16.9905C5.01267 17.4651 5.09283 17.9133 5.05171 18.2808C5.01011 18.652 4.8319 19.0739 4.64318 19.5205L4.56834 19.6984C4.29338 20.3556 4.03217 21.0612 4.11758 21.8239C4.21101 22.6585 4.70316 23.3434 5.1374 23.9478C5.42127 24.3431 5.68953 24.7165 5.81391 25.0727C5.93401 25.4168 5.95536 25.8681 5.97831 26.346C6.01389 27.0969 6.05432 27.9479 6.51061 28.6729C6.95072 29.372 7.68459 29.771 8.33208 30.1233C8.76632 30.3595 9.17637 30.5826 9.45223 30.8586C9.72809 31.1345 9.95115 31.5447 10.1874 31.9791C10.451 32.4639 10.7409 32.9969 11.1627 33.4189C11.3061 33.5636 11.4654 33.6918 11.6374 33.8011C12.3622 34.2575 13.2129 34.2979 13.9635 34.3335C14.4411 34.3562 14.8922 34.3778 15.2364 34.498C15.5925 34.6223 15.9658 34.8907 16.3608 35.1747C16.965 35.6091 17.6497 36.1013 18.4839 36.1948C19.2468 36.2805 19.9526 36.0187 20.6093 35.7438L20.7858 35.6695C21.2326 35.4806 21.6548 35.3021 22.0263 35.2604C22.3935 35.2193 22.8415 35.2995 23.316 35.3844C24.0525 35.5163 24.887 35.6655 25.6888 35.3857C26.4767 35.1105 27.0331 34.4795 27.5241 33.9231C27.848 33.5559 28.1534 33.2094 28.4772 33.0056C28.7801 32.8148 29.2117 32.6943 29.669 32.5664C30.1661 32.4277 30.7085 32.2762 31.1971 31.9983L32.4837 33.2852C29.1674 36.3435 24.8184 38.0357 20.3078 38.0229V38.0229Z" fill="#F44A25"/>
<path d="M19.015 10.5282C18.5766 10.0897 18.0181 9.79112 17.4101 9.67015C16.8021 9.54918 16.1719 9.61126 15.5992 9.84856C15.0264 10.0859 14.5369 10.4877 14.1925 11.0033C13.8481 11.5189 13.6643 12.125 13.6643 12.7451C13.6643 13.3652 13.8481 13.9714 14.1925 14.487C14.5369 15.0026 15.0264 15.4044 15.5992 15.6417C16.1719 15.879 16.8021 15.9411 17.4101 15.8201C18.0181 15.6992 18.5766 15.4006 19.015 14.9621C19.6019 14.3737 19.9316 13.5764 19.9316 12.7451C19.9316 11.9139 19.6019 11.1166 19.015 10.5282V10.5282ZM15.688 13.8561C15.4683 13.6364 15.3187 13.3564 15.2581 13.0517C15.1975 12.7469 15.2286 12.431 15.3475 12.1439C15.4664 11.8568 15.6677 11.6114 15.926 11.4387C16.1843 11.2661 16.488 11.174 16.7986 11.174C17.1093 11.174 17.413 11.2661 17.6713 11.4387C17.9296 11.6114 18.1309 11.8568 18.2498 12.1439C18.3687 12.431 18.3998 12.7469 18.3392 13.0517C18.2786 13.3564 18.129 13.6364 17.9093 13.8561C17.6145 14.1504 17.2151 14.3156 16.7986 14.3156C16.3822 14.3156 15.9828 14.1504 15.688 13.8561V13.8561Z" fill="#F44A25"/>
<path d="M12.7352 20.5304C12.4245 20.2195 12.0286 20.0079 11.5976 19.9221C11.1666 19.8364 10.7199 19.8803 10.3139 20.0485C9.90787 20.2167 9.56086 20.5016 9.3167 20.867C9.07254 21.2325 8.9422 21.6622 8.94217 22.1017C8.94213 22.5413 9.0724 22.971 9.3165 23.3365C9.5606 23.702 9.90757 23.9869 10.3135 24.1551C10.7195 24.3234 11.1662 24.3675 11.5972 24.2818C12.0282 24.1961 12.4242 23.9845 12.7349 23.6737C13.1511 23.2566 13.3848 22.6914 13.3849 22.1021C13.3849 21.5128 13.1513 20.9475 12.7352 20.5304ZM10.6044 22.6617C10.4938 22.551 10.4184 22.41 10.3879 22.2564C10.3574 22.1029 10.373 21.9438 10.4329 21.7991C10.4928 21.6545 10.5942 21.5309 10.7244 21.4439C10.8545 21.357 11.0075 21.3106 11.164 21.3106C11.3205 21.3106 11.4735 21.357 11.6036 21.444C11.7337 21.531 11.8351 21.6546 11.895 21.7992C11.9549 21.9439 11.9705 22.103 11.94 22.2565C11.9094 22.4101 11.834 22.5511 11.7234 22.6618C11.5748 22.8099 11.3737 22.893 11.1639 22.8929C10.9542 22.8929 10.7529 22.8099 10.6044 22.6617Z" fill="#F44A25"/>
<path d="M17.6763 31.443C17.9559 31.7226 18.312 31.9131 18.6998 31.9902C19.0875 32.0674 19.4894 32.0278 19.8547 31.8764C20.2199 31.7251 20.5321 31.4688 20.7517 31.14C20.9714 30.8112 21.0886 30.4247 21.0886 30.0292C21.0886 29.6338 20.9714 29.2472 20.7517 28.9184C20.5321 28.5896 20.2199 28.3333 19.8547 28.182C19.4894 28.0307 19.0875 27.9911 18.6998 28.0682C18.312 28.1454 17.9559 28.3358 17.6763 28.6154C17.302 28.9907 17.0918 29.4991 17.0918 30.0292C17.0918 30.5593 17.302 31.0677 17.6763 31.443V31.443ZM19.5932 29.5256C19.6927 29.6252 19.7605 29.7521 19.788 29.8902C19.8154 30.0283 19.8013 30.1715 19.7475 30.3016C19.6936 30.4317 19.6023 30.5429 19.4853 30.6211C19.3682 30.6994 19.2306 30.7411 19.0898 30.7411C18.949 30.7411 18.8114 30.6993 18.6943 30.6211C18.5773 30.5428 18.486 30.4316 18.4322 30.3015C18.3783 30.1714 18.3642 30.0282 18.3917 29.8901C18.4192 29.752 18.487 29.6251 18.5866 29.5256C18.7202 29.3923 18.9012 29.3175 19.0898 29.3176C19.2785 29.3176 19.4594 29.3925 19.593 29.5258L19.5932 29.5256Z" fill="#F44A25"/>
<path d="M16.8747 23.5961C16.8747 23.6989 16.8949 23.8006 16.9342 23.8955C16.9735 23.9905 17.0311 24.0767 17.1037 24.1494C17.1763 24.222 17.2625 24.2796 17.3574 24.319C17.4523 24.3583 17.554 24.3785 17.6567 24.3785C17.7594 24.3786 17.8611 24.3583 17.956 24.319C18.0509 24.2797 18.1371 24.2221 18.2098 24.1495C18.2824 24.0768 18.34 23.9906 18.3793 23.8957C18.4186 23.8008 18.4389 23.699 18.4389 23.5963L18.4389 21.6538C18.4389 21.4463 18.3565 21.2473 18.2098 21.1006C18.0631 20.9539 17.8642 20.8714 17.6568 20.8714C17.4493 20.8714 17.2504 20.9538 17.1037 21.1005C16.957 21.2473 16.8746 21.4463 16.8746 21.6538L16.8747 23.5961Z" fill="#F44A25"/>
<path d="M21.6875 10.9359C21.6875 11.1434 21.7699 11.3424 21.9166 11.4891C22.0632 11.6359 22.2622 11.7183 22.4696 11.7183C22.677 11.7183 22.876 11.6359 23.0227 11.4892C23.1694 11.3425 23.2518 11.1435 23.2518 10.936L23.2517 8.99359C23.2517 8.7861 23.1693 8.58711 23.0227 8.44038C22.876 8.29365 22.6771 8.21121 22.4697 8.2112C22.2622 8.21118 22.0633 8.29358 21.9166 8.44028C21.7699 8.58699 21.6875 8.78597 21.6875 8.99345L21.6875 10.9359Z" fill="#F44A25"/>
<path d="M10.8018 15.0717C10.8018 14.8642 10.7194 14.6652 10.5727 14.5184C10.4261 14.3717 10.2271 14.2893 10.0197 14.2893C9.81225 14.2893 9.61331 14.3717 9.46662 14.5184C9.31994 14.6651 9.23752 14.8641 9.23751 15.0716L9.23751 17.0139C9.2375 17.2214 9.31988 17.4204 9.46654 17.5671C9.6132 17.7139 9.81212 17.7963 10.0196 17.7963C10.227 17.7963 10.4259 17.7139 10.5726 17.5672C10.7193 17.4205 10.8017 17.2216 10.8017 17.0141L10.8018 15.0717Z" fill="#F44A25"/>
<path d="M14.2319 27.744C14.2319 27.6413 14.2117 27.5396 14.1724 27.4447C14.1331 27.3497 14.0755 27.2635 14.0028 27.1908C13.9302 27.1182 13.844 27.0606 13.7491 27.0212C13.6542 26.9819 13.5525 26.9617 13.4498 26.9617C13.3471 26.9616 13.2454 26.9819 13.1505 27.0212C13.0556 27.0605 12.9694 27.1181 12.8968 27.1907C12.8242 27.2634 12.7665 27.3496 12.7272 27.4445C12.6879 27.5394 12.6677 27.6412 12.6677 27.7439L12.6675 29.6862C12.6674 29.8937 12.7498 30.0927 12.8965 30.2394C13.0432 30.3861 13.2421 30.4686 13.4496 30.4686C13.657 30.4686 13.8559 30.3862 14.0026 30.2394C14.1493 30.0927 14.2317 29.8937 14.2317 29.6862L14.2319 27.744Z" fill="#F44A25"/>
<path d="M43.845 12.392C46.005 12.392 47.677 12.84 48.861 13.736C50.061 14.632 50.661 15.968 50.661 17.744C50.661 19.6 50.069 21 48.885 21.944C47.701 22.872 46.117 23.336 44.133 23.336H42.237V29H38.709V12.392H43.845ZM43.845 20.744C44.869 20.744 45.653 20.512 46.197 20.048C46.741 19.584 47.013 18.816 47.013 17.744C47.013 15.872 45.941 14.936 43.797 14.936H42.237V20.744H43.845ZM56.3185 16.28V29H52.9105V16.28H56.3185ZM54.5905 9.728C55.1985 9.728 55.6945 9.92 56.0785 10.304C56.4785 10.672 56.6785 11.144 56.6785 11.72C56.6785 12.296 56.4785 12.776 56.0785 13.16C55.6945 13.528 55.1985 13.712 54.5905 13.712C53.9825 13.712 53.4865 13.528 53.1025 13.16C52.7185 12.776 52.5265 12.296 52.5265 11.72C52.5265 11.144 52.7185 10.672 53.1025 10.304C53.4865 9.92 53.9825 9.728 54.5905 9.728ZM68.2759 16.28V18.704L62.2999 26.36H68.3959L68.0599 29H58.3879V26.552L64.3639 18.896H58.8919V16.28H68.2759ZM79.1743 16.28V18.704L73.1983 26.36H79.2943L78.9583 29H69.2863V26.552L75.2623 18.896H69.7903V16.28H79.1743ZM90.8492 25.472C90.8492 25.968 90.9212 26.336 91.0652 26.576C91.2092 26.8 91.4492 26.968 91.7852 27.08L91.0652 29.336C90.3132 29.272 89.6972 29.096 89.2172 28.808C88.7532 28.52 88.3932 28.072 88.1372 27.464C87.3052 28.744 86.0332 29.384 84.3212 29.384C83.0572 29.384 82.0492 29.024 81.2972 28.304C80.5612 27.568 80.1932 26.616 80.1932 25.448C80.1932 24.056 80.6972 22.992 81.7052 22.256C82.7132 21.52 84.1612 21.152 86.0492 21.152H87.5132V20.528C87.5132 19.744 87.3372 19.2 86.9852 18.896C86.6332 18.592 86.0492 18.44 85.2332 18.44C84.3372 18.44 83.2172 18.664 81.8732 19.112L81.1052 16.832C82.6892 16.208 84.2572 15.896 85.8092 15.896C87.5372 15.896 88.8092 16.272 89.6252 17.024C90.4412 17.76 90.8492 18.864 90.8492 20.336V25.472ZM85.2572 26.936C86.2172 26.936 86.9692 26.464 87.5132 25.52V23.096H86.3852C84.5452 23.096 83.6252 23.784 83.6252 25.16C83.6252 25.72 83.7612 26.16 84.0332 26.48C84.3212 26.784 84.7292 26.936 85.2572 26.936ZM105.25 12.008C106.45 12.008 107.49 12.184 108.37 12.536C109.266 12.872 110.09 13.392 110.842 14.096L109.162 16.04C108.57 15.56 107.978 15.208 107.386 14.984C106.794 14.76 106.162 14.648 105.49 14.648C104.754 14.648 104.162 14.808 103.714 15.128C103.282 15.432 103.066 15.872 103.066 16.448C103.066 16.848 103.154 17.176 103.33 17.432C103.522 17.688 103.85 17.928 104.314 18.152C104.778 18.376 105.474 18.632 106.402 18.92C108.05 19.448 109.282 20.104 110.098 20.888C110.914 21.656 111.322 22.76 111.322 24.2C111.322 25.224 111.066 26.128 110.554 26.912C110.042 27.68 109.298 28.288 108.322 28.736C107.346 29.168 106.202 29.384 104.89 29.384C103.578 29.384 102.41 29.176 101.386 28.76C100.362 28.344 99.4816 27.776 98.7456 27.056L100.546 25.064C101.186 25.608 101.85 26.024 102.538 26.312C103.226 26.584 103.978 26.72 104.794 26.72C105.658 26.72 106.346 26.52 106.858 26.12C107.386 25.72 107.65 25.16 107.65 24.44C107.65 23.992 107.554 23.624 107.362 23.336C107.186 23.032 106.874 22.76 106.426 22.52C105.978 22.28 105.33 22.032 104.482 21.776C102.674 21.216 101.378 20.544 100.594 19.76C99.8256 18.976 99.4416 17.952 99.4416 16.688C99.4416 15.76 99.6896 14.944 100.186 14.24C100.682 13.52 101.37 12.968 102.25 12.584C103.13 12.2 104.13 12.008 105.25 12.008ZM120.788 15.896C121.892 15.896 122.756 16.24 123.38 16.928C124.02 17.6 124.34 18.536 124.34 19.736V29H120.932V20.312C120.932 19.624 120.812 19.144 120.572 18.872C120.332 18.584 119.988 18.44 119.54 18.44C118.644 18.44 117.828 19.024 117.092 20.192V29H113.684V11.216L117.092 10.856V17.72C117.604 17.112 118.156 16.656 118.748 16.352C119.356 16.048 120.036 15.896 120.788 15.896ZM130.99 16.28V29H127.582V16.28H130.99ZM129.262 9.728C129.87 9.728 130.366 9.92 130.75 10.304C131.15 10.672 131.35 11.144 131.35 11.72C131.35 12.296 131.15 12.776 130.75 13.16C130.366 13.528 129.87 13.712 129.262 13.712C128.654 13.712 128.158 13.528 127.774 13.16C127.39 12.776 127.198 12.296 127.198 11.72C127.198 11.144 127.39 10.672 127.774 10.304C128.158 9.92 128.654 9.728 129.262 9.728ZM145.372 11.216V29H142.372L142.18 27.44C141.284 28.736 140.068 29.384 138.532 29.384C136.964 29.384 135.764 28.784 134.932 27.584C134.116 26.368 133.708 24.72 133.708 22.64C133.708 21.328 133.916 20.168 134.332 19.16C134.764 18.136 135.372 17.336 136.156 16.76C136.94 16.184 137.844 15.896 138.868 15.896C140.052 15.896 141.084 16.32 141.964 17.168V10.832L145.372 11.216ZM139.54 26.84C140.036 26.84 140.476 26.72 140.86 26.48C141.244 26.224 141.612 25.832 141.964 25.304V19.616C141.628 19.216 141.284 18.92 140.932 18.728C140.596 18.52 140.204 18.416 139.756 18.416C138.972 18.416 138.356 18.76 137.908 19.448C137.476 20.136 137.26 21.2 137.26 22.64C137.26 24.16 137.452 25.24 137.836 25.88C138.236 26.52 138.804 26.84 139.54 26.84Z" fill="black"/>
</svg>
